<?xml version="1.0" encoding="UTF-8"?>
<svg width="32" height="32" viewBox="0 0 32 32" fill="none" xmlns="http://www.w3.org/2000/svg">
  <circle cx="16" cy="16" r="16" fill="#26A17B"/>
  <path d="M17.922 17.383v-.002h2.99v-2.498h3.782v-2.498h-9.55v2.498h3.783v2.498h-.003v6.352c0 .434.241.649.724.649h1.274v2.498h-4.547v-2.498h1.274c.483 0 .724-.215.724-.649v-6.352zm-1.922-5.248V9.637c0-.434.241-.649.724-.649h1.274V6.49h-4.547V8.988h1.274c.483 0 .724.215.724.649v2.498h-3.783v2.498h9.55v-2.498h-3.782v-2.498z" fill="white"/>
</svg> 